<svg width="1314" height="356" viewBox="0 0 1314 356" fill="none" xmlns="http://www.w3.org/2000/svg">
<path d="M581.857 -0.000473022H1217.82C1245.43 -0.000473022 1267.82 22.3853 1267.82 49.9995V306C1267.82 333.614 1245.43 356 1217.82 356H581.857V-0.000473022Z" fill="white"/>
<path d="M7.89023 49.9995C7.89023 22.3853 30.276 -0.000473022 57.8902 -0.000473022H581.858V356H57.8903C30.2761 356 7.89023 333.614 7.89023 306V49.9995Z" fill="#5A189A"/>
<path d="M107.6 226.333C101.072 226.333 97.8077 223.069 97.8077 216.541V134.605C97.8077 128.077 101.072 124.813 107.6 124.813H135.536C152.528 124.813 165.632 129.181 174.848 137.917C184.16 146.653 188.816 159.181 188.816 175.501C188.816 191.725 184.16 204.253 174.848 213.085C165.632 221.917 152.528 226.333 135.536 226.333H107.6ZM116.24 211.069H134.384C157.808 211.069 169.52 199.213 169.52 175.501C169.52 151.885 157.808 140.077 134.384 140.077H116.24V211.069ZM206.394 227.485C203.034 227.485 200.634 226.333 199.194 224.029C197.754 221.725 197.802 218.941 199.338 215.677L237.354 131.437C238.602 128.653 240.09 126.685 241.818 125.533C243.642 124.285 245.706 123.661 248.01 123.661C250.218 123.661 252.186 124.285 253.914 125.533C255.738 126.685 257.274 128.653 258.522 131.437L296.682 215.677C298.218 219.037 298.314 221.869 296.97 224.173C295.626 226.381 293.322 227.485 290.058 227.485C287.37 227.485 285.258 226.861 283.722 225.613C282.282 224.269 280.986 222.253 279.834 219.565L272.634 202.861H223.098L216.042 219.565C214.794 222.349 213.498 224.365 212.154 225.613C210.81 226.861 208.89 227.485 206.394 227.485ZM247.722 144.829L229.434 188.173H266.298L248.01 144.829H247.722ZM346.409 227.773C339.977 227.773 333.689 227.053 327.545 225.613C321.497 224.173 316.217 222.013 311.705 219.133C309.497 217.693 308.153 215.917 307.673 213.805C307.193 211.693 307.337 209.725 308.105 207.901C308.969 205.981 310.265 204.685 311.993 204.013C313.817 203.245 315.881 203.581 318.185 205.021C322.409 207.517 326.873 209.341 331.577 210.493C336.281 211.645 341.225 212.221 346.409 212.221C353.993 212.221 359.513 210.973 362.969 208.477C366.425 205.885 368.153 202.573 368.153 198.541C368.153 195.181 366.905 192.541 364.409 190.621C362.009 188.701 357.833 187.117 351.881 185.869L336.041 182.557C317.993 178.717 308.969 169.453 308.969 154.765C308.969 148.429 310.649 142.909 314.009 138.205C317.369 133.501 322.025 129.853 327.977 127.261C333.929 124.669 340.793 123.373 348.569 123.373C354.329 123.373 359.801 124.093 364.985 125.533C370.169 126.973 374.825 129.085 378.953 131.869C380.873 133.213 382.025 134.893 382.409 136.909C382.793 138.829 382.553 140.653 381.689 142.381C380.825 144.013 379.433 145.165 377.513 145.837C375.689 146.413 373.529 145.981 371.033 144.541C367.481 142.525 363.881 141.085 360.233 140.221C356.585 139.357 352.649 138.925 348.425 138.925C341.801 138.925 336.617 140.317 332.873 143.101C329.129 145.885 327.257 149.533 327.257 154.045C327.257 157.501 328.409 160.285 330.713 162.397C333.017 164.413 336.953 165.997 342.521 167.149L358.217 170.461C367.721 172.477 374.777 175.645 379.385 179.965C384.089 184.285 386.441 190.045 386.441 197.245C386.441 203.293 384.809 208.621 381.545 213.229C378.281 217.837 373.625 221.437 367.577 224.029C361.625 226.525 354.569 227.773 346.409 227.773ZM411.477 227.485C405.333 227.485 402.261 224.317 402.261 217.981V133.165C402.261 126.829 405.333 123.661 411.477 123.661C417.621 123.661 420.693 126.829 420.693 133.165V167.149H472.965V133.165C472.965 126.829 476.037 123.661 482.181 123.661C488.325 123.661 491.397 126.829 491.397 133.165V217.981C491.397 224.317 488.325 227.485 482.181 227.485C476.037 227.485 472.965 224.317 472.965 217.981V182.557H420.693V217.981C420.693 224.317 417.621 227.485 411.477 227.485Z" fill="white"/>
<g filter="url(#filter0_d_5_15)">
<path d="M683.256 225.333C676.728 225.333 673.464 222.069 673.464 215.541V133.605C673.464 127.077 676.728 123.813 683.256 123.813H717.816C728.472 123.813 736.728 126.165 742.584 130.869C748.44 135.477 751.368 141.909 751.368 150.165C751.368 155.637 749.976 160.341 747.192 164.277C744.408 168.213 740.568 171.093 735.672 172.917C741.432 174.549 745.896 177.429 749.064 181.557C752.328 185.589 753.96 190.725 753.96 196.965C753.96 205.989 750.888 212.997 744.744 217.989C738.696 222.885 730.248 225.333 719.4 225.333H683.256ZM691.176 166.869H714.648C727.224 166.869 733.512 162.021 733.512 152.325C733.512 142.629 727.224 137.781 714.648 137.781H691.176V166.869ZM691.176 211.365H717.096C729.768 211.365 736.104 206.277 736.104 196.101C736.104 185.925 729.768 180.837 717.096 180.837H691.176V211.365ZM818.109 226.773C808.317 226.773 799.725 224.613 792.333 220.293C785.037 215.973 779.373 209.925 775.341 202.149C771.309 194.277 769.293 185.061 769.293 174.501C769.293 163.845 771.309 154.629 775.341 146.853C779.373 139.077 785.037 133.077 792.333 128.853C799.629 124.533 808.221 122.373 818.109 122.373C827.997 122.373 836.589 124.533 843.885 128.853C851.181 133.077 856.845 139.077 860.877 146.853C864.909 154.629 866.925 163.797 866.925 174.357C866.925 185.013 864.909 194.277 860.877 202.149C856.845 209.925 851.181 215.973 843.885 220.293C836.589 224.613 827.997 226.773 818.109 226.773ZM818.109 210.933C827.421 210.933 834.669 207.717 839.853 201.285C845.037 194.853 847.629 185.925 847.629 174.501C847.629 162.981 845.037 154.053 839.853 147.717C834.765 141.381 827.517 138.213 818.109 138.213C808.797 138.213 801.549 141.381 796.365 147.717C791.181 154.053 788.589 162.981 788.589 174.501C788.589 185.925 791.181 194.853 796.365 201.285C801.549 207.717 808.797 210.933 818.109 210.933ZM884.566 226.485C881.206 226.485 878.806 225.333 877.366 223.029C875.926 220.725 875.974 217.941 877.51 214.677L915.526 130.437C916.774 127.653 918.262 125.685 919.99 124.533C921.814 123.285 923.878 122.661 926.182 122.661C928.39 122.661 930.358 123.285 932.086 124.533C933.91 125.685 935.446 127.653 936.694 130.437L974.854 214.677C976.39 218.037 976.486 220.869 975.142 223.173C973.798 225.381 971.494 226.485 968.23 226.485C965.542 226.485 963.43 225.861 961.894 224.613C960.454 223.269 959.158 221.253 958.006 218.565L950.806 201.861H901.27L894.214 218.565C892.966 221.349 891.67 223.365 890.326 224.613C888.982 225.861 887.062 226.485 884.566 226.485ZM925.894 143.829L907.606 187.173H944.47L926.182 143.829H925.894ZM999.93 226.485C993.786 226.485 990.714 223.317 990.714 216.981V133.173C990.714 126.933 993.834 123.813 1000.07 123.813H1034.78C1045.91 123.813 1054.51 126.501 1060.55 131.877C1066.6 137.157 1069.63 144.597 1069.63 154.197C1069.63 161.781 1067.66 168.069 1063.72 173.061C1059.79 177.957 1054.12 181.269 1046.73 182.997C1051.63 184.533 1055.66 188.229 1058.83 194.085L1069.63 214.101C1071.26 217.173 1071.55 220.005 1070.49 222.597C1069.53 225.189 1067.08 226.485 1063.15 226.485C1060.55 226.485 1058.44 225.957 1056.81 224.901C1055.18 223.749 1053.74 222.021 1052.49 219.717L1037.95 192.933C1036.22 189.669 1034.15 187.509 1031.75 186.453C1029.45 185.301 1026.47 184.725 1022.83 184.725H1009.15V216.981C1009.15 223.317 1006.07 226.485 999.93 226.485ZM1009.15 171.045H1031.61C1045.05 171.045 1051.77 165.573 1051.77 154.629C1051.77 143.781 1045.05 138.357 1031.61 138.357H1009.15V171.045ZM1099.22 225.333C1092.7 225.333 1089.43 222.069 1089.43 215.541V133.605C1089.43 127.077 1092.7 123.813 1099.22 123.813H1127.16C1144.15 123.813 1157.26 128.181 1166.47 136.917C1175.78 145.653 1180.44 158.181 1180.44 174.501C1180.44 190.725 1175.78 203.253 1166.47 212.085C1157.26 220.917 1144.15 225.333 1127.16 225.333H1099.22ZM1107.86 210.069H1126.01C1149.43 210.069 1161.14 198.213 1161.14 174.501C1161.14 150.885 1149.43 139.077 1126.01 139.077H1107.86V210.069Z" fill="black"/>
</g>
<defs>
<filter id="filter0_d_5_15" x="669.464" y="122.373" width="514.977" height="112.4" filterUnits="userSpaceOnUse" color-interpolation-filters="sRGB">
<feFlood flood-opacity="0" result="BackgroundImageFix"/>
<feColorMatrix in="SourceAlpha" type="matrix" values="0 0 0 0 0 0 0 0 0 0 0 0 0 0 0 0 0 0 127 0" result="hardAlpha"/>
<feOffset dy="4"/>
<feGaussianBlur stdDeviation="2"/>
<feComposite in2="hardAlpha" operator="out"/>
<feColorMatrix type="matrix" values="0 0 0 0 0 0 0 0 0 0 0 0 0 0 0 0 0 0 0.25 0"/>
<feBlend mode="normal" in2="BackgroundImageFix" result="effect1_dropShadow_5_15"/>
<feBlend mode="normal" in="SourceGraphic" in2="effect1_dropShadow_5_15" result="shape"/>
</filter>
</defs>
</svg>
