<svg width="762" height="342" viewBox="0 0 762 342" fill="none" xmlns="http://www.w3.org/2000/svg">
<rect x="13" width="749" height="342" rx="50" fill="#0F172A"/>
<path d="M125.265 235.272L141.137 230.152V105.48L113.233 107.016L110.673 138.76H97.1048L93.7768 90.632H212.305L208.977 138.76H195.153L192.593 107.016L164.945 105.48V228.872L181.841 233.992V245H125.265V235.272Z" fill="#34D399"/>
<path d="M231.608 235.272L247.48 230.152V105.48L231.608 100.36V90.632H294.84C308.152 90.632 318.05 93.6187 324.536 99.592C331.021 105.565 334.264 115.891 334.264 130.568C334.264 140.125 332.045 147.208 327.608 151.816C323.17 156.424 317.709 160.264 311.224 163.336V164.872C321.293 166.579 329.314 170.589 335.288 176.904C341.432 183.048 344.504 190.899 344.504 200.456C344.504 216.499 340.237 227.933 331.704 234.76C323.341 241.587 312.077 245 297.912 245H231.608V235.272ZM288.952 160.52C296.12 160.52 301.24 158.813 304.312 155.4C307.554 151.816 309.176 144.819 309.176 134.408C309.176 122.803 308.322 114.525 306.616 109.576C305.08 104.456 302.264 102.152 298.168 102.664L271.288 105.736V160.52H288.952ZM305.08 232.968C310.2 233.48 313.869 231.005 316.088 225.544C318.306 219.912 319.416 210.525 319.416 197.384C319.416 190.557 318.562 185.608 316.856 182.536C315.149 179.293 312.845 177.245 309.944 176.392C307.042 175.539 302.946 175.112 297.656 175.112H271.288V229.384L305.08 232.968Z" fill="#F87171"/>
<path d="M521.691 147.496H490.587L489.819 141.224C492.806 135.08 496.432 127.059 500.699 117.16C505.051 107.261 508.55 98.9413 511.195 92.2L521.307 96.424V99.112C519.43 103.208 516.315 109.565 511.963 118.184C507.611 126.717 504.155 133.245 501.595 137.768L501.851 138.792H521.691V121.256L530.267 118.056L532.699 118.952V138.792H541.403V147.496H532.699V164.52H521.691V147.496ZM578.229 154.152C569.781 154.152 563.466 151.507 559.285 146.216C555.104 140.84 553.013 133.16 553.013 123.176C553.013 117.971 553.824 113.064 555.445 108.456C557.066 103.763 559.754 99.9227 563.509 96.936C567.264 93.864 572.085 92.328 577.973 92.328C586.421 92.328 592.693 94.9733 596.789 100.264C600.885 105.555 602.933 113.192 602.933 123.176C602.933 128.381 602.122 133.331 600.501 138.024C598.88 142.717 596.234 146.6 592.565 149.672C588.896 152.659 584.117 154.152 578.229 154.152ZM575.797 146.984C578.186 146.984 580.32 146.643 582.197 145.96C584.16 145.192 586.293 144.125 588.597 142.76C589.024 140.797 589.322 138.365 589.493 135.464C589.664 132.477 589.749 128.381 589.749 123.176C589.749 114.557 588.981 108.456 587.445 104.872C585.994 101.288 583.52 99.496 580.021 99.496C575.84 99.496 571.658 100.904 567.477 103.72C566.88 105.768 566.496 108.243 566.325 111.144C566.24 113.96 566.197 117.971 566.197 123.176C566.197 131.795 566.922 137.939 568.373 141.608C569.824 145.192 572.298 146.984 575.797 146.984ZM643.691 147.496H612.587L611.819 141.224C614.806 135.08 618.432 127.059 622.699 117.16C627.051 107.261 630.55 98.9413 633.195 92.2L643.307 96.424V99.112C641.43 103.208 638.315 109.565 633.963 118.184C629.611 126.717 626.155 133.245 623.595 137.768L623.851 138.792H643.691V121.256L652.267 118.056L654.699 118.952V138.792H663.403V147.496H654.699V164.52H643.691V147.496Z" fill="#888888"/>
<path d="M457.212 245.448C457.041 245.448 456.7 245.277 456.188 244.936L448.635 226.12C447.782 224.029 446.268 219.955 444.092 213.896H443.644L444.284 238.664V240.968L448.508 242.248V245H434.876V242.568L438.844 241.288V210.12L434.876 208.84V206.408H446.652L455.42 227.848C455.974 229.256 457.297 233.117 459.388 239.432H459.9L459.26 212.68V210.44L455.036 209.16V206.408H468.668V208.84L464.7 210.12V244.552C463.676 244.723 462.31 244.893 460.604 245.064C458.94 245.277 457.809 245.405 457.212 245.448ZM490.151 245.576C484.434 245.576 480.167 244.083 477.351 241.096C474.535 238.067 473.127 233.331 473.127 226.888C473.127 224.029 473.298 221.448 473.639 219.144C473.98 216.797 474.45 214.877 475.047 213.384C475.687 212.36 476.711 211.272 478.119 210.12C479.57 208.925 481.02 207.923 482.471 207.112C483.964 206.301 485.031 205.896 485.671 205.896C491.388 205.896 495.655 207.411 498.471 210.44C501.287 213.427 502.695 218.163 502.695 224.648C502.695 229.597 502.162 234.077 501.095 238.088C500.412 239.027 499.303 240.093 497.767 241.288C496.274 242.483 494.78 243.507 493.287 244.36C491.836 245.171 490.791 245.576 490.151 245.576ZM489.639 241.736C490.108 241.736 491.09 241.352 492.583 240.584C494.119 239.816 494.972 239.283 495.143 238.984C495.954 235.4 496.359 231.005 496.359 225.8C496.359 220.467 495.698 216.477 494.375 213.832C493.052 211.187 490.706 209.864 487.335 209.864C485.202 209.864 483.644 210.12 482.663 210.632C481.596 211.187 480.786 212.744 480.231 215.304C479.719 217.864 479.463 221.299 479.463 225.608C479.463 229.789 479.762 233.032 480.359 235.336C480.999 237.64 482.044 239.283 483.495 240.264C484.946 241.245 486.994 241.736 489.639 241.736ZM513.822 242.568L517.79 241.288V210.12L510.814 210.504L510.174 218.44H506.782L505.95 206.408H535.582L534.75 218.44H531.294L530.654 210.504L523.742 210.12V240.968L527.966 242.248V245H513.822V242.568ZM548.938 242.568L552.906 241.288V210.12L548.938 208.84V206.408H573.194L572.362 217.608H568.906L568.202 209.544L558.858 210.44V224.2L567.754 224.52V227.528L558.858 227.848V240.84L565.258 242.248V245H548.938V242.568ZM594.401 245.576C588.684 245.576 584.417 244.083 581.601 241.096C578.785 238.067 577.377 233.331 577.377 226.888C577.377 224.029 577.548 221.448 577.889 219.144C578.23 216.797 578.7 214.877 579.297 213.384C579.937 212.36 580.961 211.272 582.369 210.12C583.82 208.925 585.27 207.923 586.721 207.112C588.214 206.301 589.281 205.896 589.921 205.896C595.638 205.896 599.905 207.411 602.721 210.44C605.537 213.427 606.945 218.163 606.945 224.648C606.945 229.597 606.412 234.077 605.345 238.088C604.662 239.027 603.553 240.093 602.017 241.288C600.524 242.483 599.03 243.507 597.537 244.36C596.086 245.171 595.041 245.576 594.401 245.576ZM593.889 241.736C594.358 241.736 595.34 241.352 596.833 240.584C598.369 239.816 599.222 239.283 599.393 238.984C600.204 235.4 600.609 231.005 600.609 225.8C600.609 220.467 599.948 216.477 598.625 213.832C597.302 211.187 594.956 209.864 591.585 209.864C589.452 209.864 587.894 210.12 586.913 210.632C585.846 211.187 585.036 212.744 584.481 215.304C583.969 217.864 583.713 221.299 583.713 225.608C583.713 229.789 584.012 233.032 584.609 235.336C585.249 237.64 586.294 239.283 587.745 240.264C589.196 241.245 591.244 241.736 593.889 241.736ZM625.496 245.512C619.138 245.512 615.96 241.715 615.96 234.12V210.12L611.992 208.84V206.408H626.135V209.16L621.912 210.44V232.776C621.912 235.805 622.253 237.832 622.936 238.856C623.661 239.837 624.6 240.328 625.752 240.328C626.477 240.328 627.8 240.093 629.72 239.624C631.682 239.112 633.538 238.6 635.288 238.088V210.44L631.064 209.16V206.408H645.208V208.84L641.24 210.12V241.288L645.208 242.568V245H636.76L635.416 241.224C635.074 241.352 634.69 241.523 634.264 241.736C633.837 241.949 633.368 242.163 632.856 242.376C628.418 244.467 625.965 245.512 625.496 245.512ZM672.899 245.448C672.728 245.448 672.387 245.277 671.875 244.936L664.323 226.12C663.47 224.029 661.955 219.955 659.779 213.896H659.331L659.971 238.664V240.968L664.195 242.248V245H650.563V242.568L654.531 241.288V210.12L650.563 208.84V206.408H662.339L671.107 227.848C671.662 229.256 672.984 233.117 675.075 239.432H675.587L674.947 212.68V210.44L670.723 209.16V206.408H684.355V208.84L680.387 210.12V244.552C679.363 244.723 677.998 244.893 676.291 245.064C674.627 245.277 673.496 245.405 672.899 245.448ZM688.751 242.568L692.719 241.288V210.12L688.751 208.84V206.408H706.479C708.825 206.408 711.023 207.005 713.071 208.2C715.119 209.352 716.783 211.293 718.062 214.024C719.343 216.755 719.983 220.296 719.983 224.648C719.983 231.56 718.809 236.68 716.463 240.008C714.116 243.336 710.788 245 706.479 245H688.751V242.568ZM707.695 241.992C709.529 241.992 710.98 240.477 712.047 237.448C713.113 234.376 713.647 230.237 713.647 225.032C713.647 222.216 713.391 219.635 712.879 217.288C712.409 214.899 711.727 213 710.831 211.592C709.935 210.141 708.889 209.416 707.695 209.416L698.671 210.312V240.968L707.695 241.992Z" fill="#888888"/>
</svg>
